<svg width="84" height="84" viewBox="0 0 84 84" fill="none" xmlns="http://www.w3.org/2000/svg">
<path d="M53.55 38.85C52.7146 38.85 51.9133 38.5181 51.3226 37.9274C50.7319 37.3367 50.4 36.5354 50.4 35.7C50.4 34.8646 50.7319 34.0634 51.3226 33.4726C51.9133 32.8819 52.7146 32.55 53.55 32.55C54.3854 32.55 55.1866 32.8819 55.7774 33.4726C56.3681 34.0634 56.7 34.8646 56.7 35.7C56.7 36.5354 56.3681 37.3367 55.7774 37.9274C55.1866 38.5181 54.3854 38.85 53.55 38.85ZM53.55 51.45C52.7146 51.45 51.9133 51.1181 51.3226 50.5274C50.7319 49.9367 50.4 49.1354 50.4 48.3C50.4 47.4646 50.7319 46.6634 51.3226 46.0726C51.9133 45.4819 52.7146 45.15 53.55 45.15C54.3854 45.15 55.1866 45.4819 55.7774 46.0726C56.3681 46.6634 56.7 47.4646 56.7 48.3C56.7 49.1354 56.3681 49.9367 55.7774 50.5274C55.1866 51.1181 54.3854 51.45 53.55 51.45ZM50.4 60.9C50.4 61.7354 50.7319 62.5367 51.3226 63.1274C51.9133 63.7181 52.7146 64.05 53.55 64.05C54.3854 64.05 55.1866 63.7181 55.7774 63.1274C56.3681 62.5367 56.7 61.7354 56.7 60.9C56.7 60.0646 56.3681 59.2634 55.7774 58.6726C55.1866 58.0819 54.3854 57.75 53.55 57.75C52.7146 57.75 51.9133 58.0819 51.3226 58.6726C50.7319 59.2634 50.4 60.0646 50.4 60.9ZM46.2 35.7C46.2 35.1431 45.9787 34.6089 45.5849 34.2151C45.1911 33.8213 44.6569 33.6 44.1 33.6H29.4C28.843 33.6 28.3089 33.8213 27.9151 34.2151C27.5212 34.6089 27.3 35.1431 27.3 35.7C27.3 36.257 27.5212 36.7911 27.9151 37.1849C28.3089 37.5788 28.843 37.8 29.4 37.8H44.1C44.6569 37.8 45.1911 37.5788 45.5849 37.1849C45.9787 36.7911 46.2 36.257 46.2 35.7ZM46.2 48.3C46.2 47.7431 45.9787 47.2089 45.5849 46.8151C45.1911 46.4213 44.6569 46.2 44.1 46.2H29.4C28.843 46.2 28.3089 46.4213 27.9151 46.8151C27.5212 47.2089 27.3 47.7431 27.3 48.3C27.3 48.857 27.5212 49.3911 27.9151 49.7849C28.3089 50.1788 28.843 50.4 29.4 50.4H44.1C44.6569 50.4 45.1911 50.1788 45.5849 49.7849C45.9787 49.3911 46.2 48.857 46.2 48.3ZM46.2 60.9C46.2 60.3431 45.9787 59.8089 45.5849 59.4151C45.1911 59.0213 44.6569 58.8 44.1 58.8H29.4C28.843 58.8 28.3089 59.0213 27.9151 59.4151C27.5212 59.8089 27.3 60.3431 27.3 60.9C27.3 61.457 27.5212 61.9911 27.9151 62.3849C28.3089 62.7788 28.843 63 29.4 63H44.1C44.6569 63 45.1911 62.7788 45.5849 62.3849C45.9787 61.9911 46.2 61.457 46.2 60.9ZM35.7 8.40001C34.3966 8.39933 33.1251 8.80291 32.0607 9.55513C30.9963 10.3073 30.1914 11.3712 29.757 12.6H23.1C21.4291 12.6 19.8267 13.2638 18.6452 14.4452C17.4637 15.6267 16.8 17.2291 16.8 18.9V69.3C16.8 70.9709 17.4637 72.5733 18.6452 73.7548C19.8267 74.9363 21.4291 75.6 23.1 75.6H60.9C62.5709 75.6 64.1733 74.9363 65.3548 73.7548C66.5362 72.5733 67.2 70.9709 67.2 69.3V18.9C67.2 17.2291 66.5362 15.6267 65.3548 14.4452C64.1733 13.2638 62.5709 12.6 60.9 12.6H54.243C53.8085 11.3712 53.0036 10.3073 51.9392 9.55513C50.8749 8.80291 49.6034 8.39933 48.3 8.40001H35.7ZM33.6 14.7C33.6 14.1431 33.8212 13.6089 34.2151 13.2151C34.6089 12.8213 35.143 12.6 35.7 12.6H48.3C48.8569 12.6 49.3911 12.8213 49.7849 13.2151C50.1787 13.6089 50.4 14.1431 50.4 14.7C50.4 15.257 50.1787 15.7911 49.7849 16.1849C49.3911 16.5788 48.8569 16.8 48.3 16.8H35.7C35.143 16.8 34.6089 16.5788 34.2151 16.1849C33.8212 15.7911 33.6 15.257 33.6 14.7ZM23.1 16.8H29.757C30.1914 18.0288 30.9963 19.0927 32.0607 19.8449C33.1251 20.5971 34.3966 21.0007 35.7 21H48.3C49.6034 21.0007 50.8749 20.5971 51.9392 19.8449C53.0036 19.0927 53.8085 18.0288 54.243 16.8H60.9C61.4569 16.8 61.9911 17.0213 62.3849 17.4151C62.7787 17.8089 63 18.3431 63 18.9V69.3C63 69.857 62.7787 70.3911 62.3849 70.7849C61.9911 71.1788 61.4569 71.4 60.9 71.4H23.1C22.543 71.4 22.0089 71.1788 21.6151 70.7849C21.2212 70.3911 21 69.857 21 69.3V18.9C21 18.3431 21.2212 17.8089 21.6151 17.4151C22.0089 17.0213 22.543 16.8 23.1 16.8V16.8Z" fill="#9747FF"/>
</svg>
