<svg width="72" height="72" viewBox="0 0 72 72" fill="none" xmlns="http://www.w3.org/2000/svg">
<path d="M57.825 20.925L42.075 5.175C41.625 4.725 41.175 4.5 40.5 4.5H18C15.525 4.5 13.5 6.525 13.5 9V63C13.5 65.475 15.525 67.5 18 67.5H54C56.475 67.5 58.5 65.475 58.5 63V22.5C58.5 21.825 58.275 21.375 57.825 20.925ZM40.5 9.9L53.1 22.5H40.5V9.9ZM54 63H18V9H36V22.5C36 24.975 38.025 27 40.5 27H54V63Z" fill="white"/>
<path d="M22.5 49.5H49.5V54H22.5V49.5Z" fill="white"/>
<path d="M22.5 36H49.5V40.5H22.5V36Z" fill="white"/>
</svg>
