<svg width="72" height="72" viewBox="0 0 72 72" fill="none" xmlns="http://www.w3.org/2000/svg">
<circle cx="36" cy="36" r="36" fill="#F7F0F0"/>
<path d="M48.25 23.25C48.25 26.4989 46.9594 29.6147 44.6621 31.9121C42.3647 34.2094 39.2489 35.5 36 35.5C32.7511 35.5 29.6353 34.2094 27.3379 31.9121C25.0406 29.6147 23.75 26.4989 23.75 23.25C23.75 20.0011 25.0406 16.8853 27.3379 14.5879C29.6353 12.2906 32.7511 11 36 11C39.2489 11 42.3647 12.2906 44.6621 14.5879C46.9594 16.8853 48.25 20.0011 48.25 23.25V23.25ZM44.75 23.25C44.75 20.9294 43.8281 18.7038 42.1872 17.0628C40.5462 15.4219 38.3206 14.5 36 14.5C33.6794 14.5 31.4538 15.4219 29.8128 17.0628C28.1719 18.7038 27.25 20.9294 27.25 23.25C27.25 25.5706 28.1719 27.7962 29.8128 29.4372C31.4538 31.0781 33.6794 32 36 32C38.3206 32 40.5462 31.0781 42.1872 29.4372C43.8281 27.7962 44.75 25.5706 44.75 23.25ZM21.125 39C19.5005 39 17.9426 39.6453 16.794 40.794C15.6453 41.9426 15 43.5005 15 45.125V46C15 50.1877 17.6653 53.7297 21.4487 56.1377C25.2532 58.5597 30.4035 60 36 60C41.5965 60 46.745 58.5597 50.5513 56.1377C54.3348 53.7297 57 50.1877 57 46V45.125C57 43.5005 56.3547 41.9426 55.206 40.794C54.0574 39.6453 52.4995 39 50.875 39H21.125ZM18.5 45.125C18.5 44.4288 18.7766 43.7611 19.2688 43.2688C19.7611 42.7766 20.4288 42.5 21.125 42.5H50.875C51.5712 42.5 52.2389 42.7766 52.7312 43.2688C53.2234 43.7611 53.5 44.4288 53.5 45.125V46C53.5 48.5778 51.855 51.1608 48.6717 53.1855C45.5095 55.198 41.0348 56.5 36 56.5C30.9652 56.5 26.4905 55.198 23.3282 53.1855C20.1432 51.1625 18.5 48.576 18.5 46V45.125Z" fill="#699BF7"/>
</svg>
