<svg width="72" height="72" viewBox="0 0 72 72" fill="none" xmlns="http://www.w3.org/2000/svg">
<path d="M48.6 46.8C48.1226 46.8 47.6648 46.9897 47.3272 47.3273C46.9897 47.6648 46.8 48.1227 46.8 48.6C46.8 49.0774 46.9897 49.5353 47.3272 49.8728C47.6648 50.2104 48.1226 50.4001 48.6 50.4001H55.8C56.2774 50.4001 56.7352 50.2104 57.0728 49.8728C57.4104 49.5353 57.6 49.0774 57.6 48.6C57.6 48.1227 57.4104 47.6648 57.0728 47.3273C56.7352 46.9897 56.2774 46.8 55.8 46.8H48.6Z" fill="white"/>
<path d="M7.20001 23.4C7.20001 21.0131 8.14822 18.7239 9.83605 17.0361C11.5239 15.3482 13.8131 14.4 16.2 14.4H55.8C58.187 14.4 60.4761 15.3482 62.164 17.0361C63.8518 18.7239 64.8 21.0131 64.8 23.4V48.6C64.8 50.987 63.8518 53.2762 62.164 54.964C60.4761 56.6518 58.187 57.6 55.8 57.6H16.2C13.8131 57.6 11.5239 56.6518 9.83605 54.964C8.14822 53.2762 7.20001 50.987 7.20001 48.6V23.4ZM10.8 48.6C10.8 50.0322 11.3689 51.4057 12.3816 52.4184C13.3943 53.4311 14.7678 54 16.2 54H55.8C57.2322 54 58.6057 53.4311 59.6184 52.4184C60.6311 51.4057 61.2 50.0322 61.2 48.6V32.4H10.8V48.6ZM61.2 23.4C61.2 21.9679 60.6311 20.5943 59.6184 19.5816C58.6057 18.569 57.2322 18 55.8 18H16.2C14.7678 18 13.3943 18.569 12.3816 19.5816C11.3689 20.5943 10.8 21.9679 10.8 23.4V28.8H61.2V23.4Z" fill="white"/>
</svg>
