<svg width="175" height="170" viewBox="0 0 175 170" fill="none" xmlns="http://www.w3.org/2000/svg">
<ellipse cx="87.5" cy="85" rx="87.5" ry="85" fill="#73EBF2"/>
<ellipse cx="87.5" cy="85" rx="61.7248" ry="59.9612" fill="#B1B0DF"/>
<path d="M92.46 82.8173C91.6842 82.8173 90.9402 82.518 90.3916 81.9851C89.8431 81.4522 89.5349 80.7294 89.5349 79.9758C89.5349 79.2221 89.8431 78.4994 90.3916 77.9665C90.9402 77.4336 91.6842 77.1342 92.46 77.1342C93.2358 77.1342 93.9798 77.4336 94.5284 77.9665C95.077 78.4994 95.3852 79.2221 95.3852 79.9758C95.3852 80.7294 95.077 81.4522 94.5284 81.9851C93.9798 82.518 93.2358 82.8173 92.46 82.8173ZM92.46 94.1836C91.6842 94.1836 90.9402 93.8842 90.3916 93.3513C89.8431 92.8184 89.5349 92.0957 89.5349 91.342C89.5349 90.5884 89.8431 89.8657 90.3916 89.3328C90.9402 88.7999 91.6842 88.5005 92.46 88.5005C93.2358 88.5005 93.9798 88.7999 94.5284 89.3328C95.077 89.8657 95.3852 90.5884 95.3852 91.342C95.3852 92.0957 95.077 92.8184 94.5284 93.3513C93.9798 93.8842 93.2358 94.1836 92.46 94.1836ZM89.5349 102.708C89.5349 103.462 89.8431 104.185 90.3916 104.718C90.9402 105.251 91.6842 105.55 92.46 105.55C93.2358 105.55 93.9798 105.251 94.5284 104.718C95.077 104.185 95.3852 103.462 95.3852 102.708C95.3852 101.955 95.077 101.232 94.5284 100.699C93.9798 100.166 93.2358 99.8668 92.46 99.8668C91.6842 99.8668 90.9402 100.166 90.3916 100.699C89.8431 101.232 89.5349 101.955 89.5349 102.708ZM85.6347 79.9758C85.6347 79.4733 85.4292 78.9915 85.0635 78.6362C84.6978 78.281 84.2018 78.0814 83.6846 78.0814H70.0339C69.5167 78.0814 69.0207 78.281 68.655 78.6362C68.2893 78.9915 68.0838 79.4733 68.0838 79.9758C68.0838 80.4782 68.2893 80.96 68.655 81.3153C69.0207 81.6706 69.5167 81.8701 70.0339 81.8701H83.6846C84.2018 81.8701 84.6978 81.6706 85.0635 81.3153C85.4292 80.96 85.6347 80.4782 85.6347 79.9758ZM85.6347 91.342C85.6347 90.8396 85.4292 90.3578 85.0635 90.0025C84.6978 89.6472 84.2018 89.4477 83.6846 89.4477H70.0339C69.5167 89.4477 69.0207 89.6472 68.655 90.0025C68.2893 90.3578 68.0838 90.8396 68.0838 91.342C68.0838 91.8445 68.2893 92.3263 68.655 92.6816C69.0207 93.0368 69.5167 93.2364 70.0339 93.2364H83.6846C84.2018 93.2364 84.6978 93.0368 85.0635 92.6816C85.4292 92.3263 85.6347 91.8445 85.6347 91.342ZM85.6347 102.708C85.6347 102.206 85.4292 101.724 85.0635 101.369C84.6978 101.014 84.2018 100.814 83.6846 100.814H70.0339C69.5167 100.814 69.0207 101.014 68.655 101.369C68.2893 101.724 68.0838 102.206 68.0838 102.708C68.0838 103.211 68.2893 103.693 68.655 104.048C69.0207 104.403 69.5167 104.603 70.0339 104.603H83.6846C84.2018 104.603 84.6978 104.403 85.0635 104.048C85.4292 103.693 85.6347 103.211 85.6347 102.708ZM75.8842 55.3488C74.6739 55.3482 73.4931 55.7123 72.5047 56.3908C71.5163 57.0694 70.7689 58.0291 70.3654 59.1376H64.1836C62.632 59.1376 61.144 59.7363 60.0468 60.8021C58.9497 61.8679 58.3333 63.3135 58.3333 64.8207V110.286C58.3333 111.793 58.9497 113.239 60.0468 114.304C61.144 115.37 62.632 115.969 64.1836 115.969H99.2854C100.837 115.969 102.325 115.37 103.422 114.304C104.519 113.239 105.136 111.793 105.136 110.286V64.8207C105.136 63.3135 104.519 61.8679 103.422 60.8021C102.325 59.7363 100.837 59.1376 99.2854 59.1376H93.1035C92.7001 58.0291 91.9527 57.0694 90.9643 56.3908C89.9758 55.7123 88.7951 55.3482 87.5848 55.3488H75.8842ZM73.9341 61.032C73.9341 60.5296 74.1396 60.0477 74.5053 59.6924C74.871 59.3372 75.367 59.1376 75.8842 59.1376H87.5848C88.102 59.1376 88.598 59.3372 88.9637 59.6924C89.3294 60.0477 89.5349 60.5296 89.5349 61.032C89.5349 61.5344 89.3294 62.0162 88.9637 62.3715C88.598 62.7268 88.102 62.9264 87.5848 62.9264H75.8842C75.367 62.9264 74.871 62.7268 74.5053 62.3715C74.1396 62.0162 73.9341 61.5344 73.9341 61.032ZM64.1836 62.9264H70.3654C70.7689 64.0349 71.5163 64.9945 72.5047 65.6731C73.4931 66.3517 74.6739 66.7157 75.8842 66.7151H87.5848C88.7951 66.7157 89.9758 66.3517 90.9643 65.6731C91.9527 64.9945 92.7001 64.0349 93.1035 62.9264H99.2854C99.8026 62.9264 100.299 63.1259 100.664 63.4812C101.03 63.8365 101.235 64.3183 101.235 64.8207V110.286C101.235 110.788 101.03 111.27 100.664 111.625C100.299 111.981 99.8026 112.18 99.2854 112.18H64.1836C63.6664 112.18 63.1704 111.981 62.8047 111.625C62.439 111.27 62.2335 110.788 62.2335 110.286V64.8207C62.2335 64.3183 62.439 63.8365 62.8047 63.4812C63.1704 63.1259 63.6664 62.9264 64.1836 62.9264Z" fill="white"/>
<g clip-path="url(#clip0)">
<path d="M108.869 103.475C111.071 100.556 112.058 96.9368 111.631 93.3417C111.204 89.7466 109.396 86.4406 106.567 84.0852C103.739 81.7297 100.1 80.4985 96.377 80.6378C92.6544 80.7772 89.1232 82.2768 86.4899 84.8367C83.8566 87.3966 82.3154 90.8279 82.1746 94.4443C82.0339 98.0606 83.3039 101.595 85.7307 104.341C88.1574 107.087 91.5619 108.841 95.2631 109.253C98.9642 109.665 102.689 108.705 105.692 106.563H105.69C105.758 106.652 105.831 106.736 105.913 106.817L114.668 115.323C115.095 115.737 115.673 115.97 116.277 115.971C116.88 115.971 117.459 115.738 117.885 115.324C118.312 114.91 118.552 114.348 118.552 113.762C118.552 113.176 118.313 112.614 117.886 112.199L109.131 103.694C109.05 103.614 108.962 103.54 108.869 103.473V103.475ZM109.456 94.9828C109.456 96.5784 109.133 98.1585 108.504 99.6326C107.875 101.107 106.954 102.446 105.793 103.575C104.631 104.703 103.252 105.598 101.735 106.208C100.217 106.819 98.5908 107.133 96.9482 107.133C95.3056 107.133 93.6792 106.819 92.1616 106.208C90.6441 105.598 89.2652 104.703 88.1038 103.575C86.9423 102.446 86.021 101.107 85.3924 99.6326C84.7638 98.1585 84.4403 96.5784 84.4403 94.9828C84.4403 91.7603 85.7581 88.6698 88.1038 86.3911C90.4495 84.1124 93.6309 82.8323 96.9482 82.8323C100.265 82.8323 103.447 84.1124 105.793 86.3911C108.138 88.6698 109.456 91.7603 109.456 94.9828Z" fill="#4791FF" fill-opacity="0.3"/>
<path d="M108.869 103.475C111.071 100.556 112.058 96.9368 111.631 93.3417C111.204 89.7466 109.396 86.4406 106.567 84.0852C103.739 81.7297 100.1 80.4985 96.377 80.6378C92.6544 80.7772 89.1232 82.2768 86.4899 84.8367C83.8566 87.3966 82.3154 90.8279 82.1746 94.4443C82.0339 98.0606 83.3039 101.595 85.7307 104.341C88.1574 107.087 91.5619 108.841 95.2631 109.253C98.9642 109.665 102.689 108.705 105.692 106.563H105.69C105.758 106.652 105.831 106.736 105.913 106.817L114.669 115.323C115.095 115.737 115.673 115.97 116.277 115.971C116.88 115.971 117.459 115.738 117.885 115.324C118.312 114.91 118.552 114.348 118.552 113.762C118.552 113.176 118.313 112.614 117.886 112.199L109.131 103.694C109.05 103.614 108.962 103.54 108.869 103.473V103.475ZM109.456 94.9828C109.456 96.5784 109.133 98.1585 108.504 99.6326C107.875 101.107 106.954 102.446 105.793 103.575C104.631 104.703 103.252 105.598 101.735 106.208C100.217 106.819 98.5908 107.133 96.9482 107.133C95.3056 107.133 93.6792 106.819 92.1616 106.208C90.6441 105.598 89.2652 104.703 88.1038 103.575C86.9423 102.446 86.021 101.107 85.3924 99.6326C84.7638 98.1585 84.4403 96.5784 84.4403 94.9828C84.4403 91.7603 85.7581 88.6698 88.1038 86.3911C90.4495 84.1124 93.6309 82.8323 96.9482 82.8323C100.266 82.8323 103.447 84.1124 105.793 86.3911C108.138 88.6698 109.456 91.7603 109.456 94.9828Z" fill="#4791FF" fill-opacity="0.3"/>
</g>
<defs>
<clipPath id="clip0">
<rect width="36.3867" height="35.347" fill="white" transform="translate(82.1666 80.622)"/>
</clipPath>
</defs>
</svg>
