<svg width="72" height="72" viewBox="0 0 72 72" fill="none" xmlns="http://www.w3.org/2000/svg">
<path d="M59.985 12.291C59.8687 10.5841 59.1085 8.98505 57.8582 7.8172C56.608 6.64935 54.9609 5.99984 53.25 6H18.75L18.288 6.015C16.5811 6.1321 14.9824 6.893 13.8151 8.14384C12.6478 9.39467 11.999 11.0421 12 12.753V59.247L12.015 59.709C12.1313 61.4159 12.8915 63.0149 14.1418 64.1828C15.392 65.3506 17.0391 66.0002 18.75 66H41.454L36.954 61.5H18.75L18.444 61.479C17.9053 61.4051 17.4117 61.1386 17.0543 60.7288C16.6969 60.319 16.5 59.7937 16.5 59.25V12.753L16.521 12.447C16.5949 11.9083 16.8614 11.4147 17.2712 11.0573C17.681 10.6999 18.2063 10.503 18.75 10.503H53.25L53.556 10.524C54.0947 10.5979 54.5883 10.8644 54.9457 11.2742C55.3031 11.684 55.5 12.2093 55.5 12.753V47.454L58.977 43.977C59.295 43.659 59.637 43.377 59.997 43.137V12.75L59.985 12.288V12.291Z" fill="white"/>
<path d="M41.523 49.5C41.3411 49.4928 41.1589 49.4928 40.977 49.5H33.738C33.1413 49.5 32.569 49.2629 32.147 48.841C31.7251 48.419 31.488 47.8467 31.488 47.25C31.488 46.6533 31.7251 46.081 32.147 45.659C32.569 45.2371 33.1413 45 33.738 45H48.75C49.3467 45 49.919 45.2371 50.341 45.659C50.763 46.081 51 46.6533 51 47.25C51 47.8467 50.763 48.419 50.341 48.841C49.919 49.2629 49.3467 49.5 48.75 49.5H41.52H41.523Z" fill="white"/>
<path d="M27 23.256C27 24.0516 26.6839 24.8147 26.1213 25.3773C25.5587 25.9399 24.7956 26.256 24 26.256C23.2044 26.256 22.4413 25.9399 21.8787 25.3773C21.3161 24.8147 21 24.0516 21 23.256C21 22.4603 21.3161 21.6973 21.8787 21.1347C22.4413 20.5721 23.2044 20.256 24 20.256C24.7956 20.256 25.5587 20.5721 26.1213 21.1347C26.6839 21.6973 27 22.4603 27 23.256Z" fill="white"/>
<path d="M31.488 23.25C31.488 22.6533 31.7251 22.081 32.147 21.659C32.569 21.2371 33.1413 21 33.738 21H48.75C49.3467 21 49.919 21.2371 50.341 21.659C50.763 22.081 51 22.6533 51 23.25C51 23.8467 50.763 24.419 50.341 24.841C49.919 25.2629 49.3467 25.5 48.75 25.5H33.738C33.1413 25.5 32.569 25.2629 32.147 24.841C31.7251 24.419 31.488 23.8467 31.488 23.25V23.25Z" fill="white"/>
<path d="M33.738 33C33.1413 33 32.569 33.2371 32.147 33.659C31.7251 34.081 31.488 34.6533 31.488 35.25C31.488 35.8467 31.7251 36.419 32.147 36.841C32.569 37.2629 33.1413 37.5 33.738 37.5H48.75C49.0455 37.5 49.3381 37.4418 49.611 37.3287C49.884 37.2157 50.1321 37.0499 50.341 36.841C50.5499 36.6321 50.7157 36.384 50.8287 36.111C50.9418 35.8381 51 35.5455 51 35.25C51 34.9545 50.9418 34.6619 50.8287 34.389C50.7157 34.116 50.5499 33.8679 50.341 33.659C50.1321 33.4501 49.884 33.2843 49.611 33.1713C49.3381 33.0582 49.0455 33 48.75 33H33.738Z" fill="white"/>
<path d="M24 38.25C24.7956 38.25 25.5587 37.9339 26.1213 37.3713C26.6839 36.8087 27 36.0456 27 35.25C27 34.4544 26.6839 33.6913 26.1213 33.1287C25.5587 32.5661 24.7956 32.25 24 32.25C23.2044 32.25 22.4413 32.5661 21.8787 33.1287C21.3161 33.6913 21 34.4544 21 35.25C21 36.0456 21.3161 36.8087 21.8787 37.3713C22.4413 37.9339 23.2044 38.25 24 38.25Z" fill="white"/>
<path d="M27 47.244C27 48.0397 26.6839 48.8027 26.1213 49.3653C25.5587 49.9279 24.7956 50.244 24 50.244C23.2044 50.244 22.4413 49.9279 21.8787 49.3653C21.3161 48.8027 21 48.0397 21 47.244C21 46.4484 21.3161 45.6853 21.8787 45.1227C22.4413 44.5601 23.2044 44.244 24 44.244C24.7956 44.244 25.5587 44.5601 26.1213 45.1227C26.6839 45.6853 27 46.4484 27 47.244V47.244Z" fill="white"/>
</svg>
